<svg width="212" height="73" viewBox="0 0 212 73" fill="none" xmlns="http://www.w3.org/2000/svg">
<path d="M41.88 21.6C42.4667 20.88 43.1733 20.48 44 20.4C44.8267 20.32 45.6267 20.4533 46.4 20.8C47.1733 21.12 47.8267 21.6267 48.36 22.32C48.92 22.9867 49.2267 23.7333 49.28 24.56L48.92 25.72C49.2133 26.0667 49.4667 26.3467 49.68 26.56C49.92 26.7733 50.0533 27.1067 50.08 27.56C50.24 27.9333 49.5733 29.4133 48.08 32C47.4667 33.0667 46.8133 34.1867 46.12 35.36C45.4533 36.5067 44.9067 37.5333 44.48 38.44C44.8 38.36 45.12 38.2933 45.44 38.24C45.76 38.1867 46.08 38.12 46.4 38.04C48.3733 37.5333 49.7067 37.28 50.4 37.28C51.0933 37.2533 51.6667 37.32 52.12 37.48C53.3467 37.96 53.9867 38.7067 54.04 39.72C53.6667 40.6 52.2667 41.8267 49.84 43.4C49.28 43.7467 48.8267 44.04 48.48 44.28L45 46.76C44.8133 47.0533 44.68 47.3333 44.6 47.6V47.64C44.6533 47.7733 44.9867 47.96 45.6 48.2C46.24 48.44 46.7867 48.6533 47.24 48.84C48.3067 49.32 49.2533 49.9733 50.08 50.8C50.3467 51.0933 50.52 51.5333 50.6 52.12C50.68 52.68 50.5867 53.2 50.32 53.68C50.08 54.16 49.64 54.5067 49 54.72C48.36 54.9333 47.4667 54.84 46.32 54.44C44.64 53.6933 42.6533 52.0267 40.36 49.44C40.0933 50.3733 39.8267 51.2933 39.56 52.2C39.32 53.08 39.0533 53.9867 38.76 54.92C38.36 55.8267 37.4267 56.2533 35.96 56.2C35.3733 56.2 34.84 56.08 34.36 55.84C33.9067 55.6 33.64 55.28 33.56 54.88C33.3467 54.2933 33.24 53.8533 33.24 53.56C33.24 53.2933 33.3067 52.9733 33.44 52.6C34.0533 51.0533 34.44 49.8267 34.6 48.92C34.76 47.9867 34.8667 47.44 34.92 47.28C34.1733 46.8 33.7333 46.04 33.6 45C33.44 43.9867 33.68 43.08 34.32 42.28C35.1733 41.96 35.7867 41.72 36.16 41.56C36.32 40.5467 36.5867 39.4533 36.96 38.28C37.6267 36.1733 38.1333 34.3467 38.48 32.8C38.8533 31.2533 39.3733 29.5067 40.04 27.56C40.7333 25.5867 41.3467 23.6 41.88 21.6ZM57.1834 36.44C57.5568 35.48 58.0768 34.76 58.7434 34.28C59.4368 33.7733 60.0901 33.4667 60.7034 33.36C61.3434 33.2267 61.8634 33.2933 62.2634 33.56C62.6901 33.8267 62.8368 34.24 62.7034 34.8C63.2101 34.2933 63.9434 33.8267 64.9034 33.4C65.8634 32.9733 66.6234 32.68 67.1834 32.52C67.7434 32.36 68.2234 32.28 68.6234 32.28C69.5034 32.3333 69.7568 32.8133 69.3834 33.72C69.8368 33.8 70.1701 34.0933 70.3834 34.6C70.5968 35.1067 70.6234 35.6667 70.4634 36.28C70.3034 36.8933 69.9434 37.4933 69.3834 38.08C68.8234 38.6667 68.0634 39.0667 67.1034 39.28C66.1701 39.4933 65.3834 39.9867 64.7434 40.76C64.1301 41.5067 63.5834 42.44 63.1034 43.56C62.3034 45.4533 61.5834 48.1333 60.9434 51.6C60.7301 52.8533 59.8634 53.9067 58.3434 54.76C56.9034 55.5867 55.5834 55.8267 54.3834 55.48C53.0234 55.1067 52.4234 54.1067 52.5834 52.48C52.6368 51.3333 52.9834 49.8133 53.6234 47.92C54.2634 46 54.7568 44.56 55.1034 43.6C55.4501 42.6133 55.6901 41.8667 55.8234 41.36L57.1834 36.44ZM82.8819 47.08C82.3752 47.32 81.8819 47.5067 81.4019 47.64C80.9219 47.7733 80.3619 47.9067 79.7219 48.04C78.0419 48.3867 76.8285 48.5867 76.0819 48.64C76.1619 48.9067 76.5619 49.2267 77.2819 49.6C77.7619 49.68 78.2819 49.6133 78.8419 49.4C79.4285 49.16 80.0285 48.9467 80.6419 48.76C81.2819 48.5467 81.8952 48.4267 82.4819 48.4C83.0952 48.3733 83.6685 48.6 84.2019 49.08C84.4152 49.56 84.5885 49.84 84.7219 49.92C84.8552 50 84.9752 50.04 85.0819 50.04C85.1885 50.04 85.3085 50.08 85.4419 50.16C85.5752 50.24 85.7619 50.5467 86.0019 51.08C86.2685 51.6133 86.2019 52.12 85.8019 52.6C85.4285 53.08 84.8419 53.4933 84.0419 53.84C83.2419 54.1867 82.3085 54.4667 81.2419 54.68C80.1752 54.8933 79.1085 55.04 78.0419 55.12C75.6419 55.3067 73.8152 55.12 72.5619 54.56C70.7485 53.9467 69.5752 52.7333 69.0419 50.92C68.3485 48.52 68.7352 45.72 70.2019 42.52C70.8685 41.0267 71.9219 39.4267 73.3619 37.72C74.6152 36.2267 76.0152 35.1467 77.5619 34.48C79.3485 33.7067 81.2152 33.3467 83.1619 33.4C85.2419 33.4533 86.6819 34.36 87.4819 36.12C87.8819 37.0533 87.9619 38.36 87.7219 40.04C87.2952 42.2267 86.7352 43.7733 86.0419 44.68C85.3485 45.56 84.2952 46.36 82.8819 47.08ZM80.5619 40.76C79.1485 40.4667 78.0419 41.2667 77.2419 43.16C77.0019 43.6667 76.8152 44.2 76.6819 44.76C77.5885 44.8667 78.5485 44.36 79.5619 43.24C79.9352 42.7867 80.2152 42.3333 80.4019 41.88C80.5885 41.4 80.6419 41.0267 80.5619 40.76Z" fill="#00D98B"/>
<path d="M103.473 24.5625V53H97.6328V24.5625H103.473ZM112.223 24.5625V29.1523H89.0195V24.5625H112.223ZM123.102 53.3906C121.461 53.3906 119.99 53.1302 118.688 52.6094C117.385 52.0755 116.279 51.3398 115.367 50.4023C114.469 49.4648 113.779 48.3776 113.297 47.1406C112.815 45.8906 112.574 44.5625 112.574 43.1562V42.375C112.574 40.7734 112.802 39.3086 113.258 37.9805C113.714 36.6523 114.365 35.5 115.211 34.5234C116.07 33.5469 117.112 32.7982 118.336 32.2773C119.56 31.7435 120.94 31.4766 122.477 31.4766C123.974 31.4766 125.302 31.724 126.461 32.2188C127.62 32.7135 128.59 33.4167 129.371 34.3281C130.165 35.2396 130.764 36.3333 131.168 37.6094C131.572 38.8724 131.773 40.2786 131.773 41.8281V44.1719H114.977V40.4219H126.246V39.9922C126.246 39.2109 126.103 38.5143 125.816 37.9023C125.543 37.2773 125.126 36.7826 124.566 36.418C124.007 36.0534 123.29 35.8711 122.418 35.8711C121.676 35.8711 121.038 36.0339 120.504 36.3594C119.97 36.6849 119.534 37.1406 119.195 37.7266C118.87 38.3125 118.622 39.0026 118.453 39.7969C118.297 40.5781 118.219 41.4375 118.219 42.375V43.1562C118.219 44.0026 118.336 44.7839 118.57 45.5C118.818 46.2161 119.163 46.8346 119.605 47.3555C120.061 47.8763 120.608 48.2799 121.246 48.5664C121.897 48.8529 122.633 48.9961 123.453 48.9961C124.469 48.9961 125.413 48.8008 126.285 48.4102C127.171 48.0065 127.932 47.401 128.57 46.5938L131.305 49.5625C130.862 50.2005 130.257 50.8125 129.488 51.3984C128.733 51.9844 127.822 52.4661 126.754 52.8438C125.686 53.2083 124.469 53.3906 123.102 53.3906ZM143.707 48.9961C144.397 48.9961 145.009 48.8659 145.543 48.6055C146.077 48.332 146.493 47.9544 146.793 47.4727C147.105 46.9779 147.268 46.3984 147.281 45.7344H152.574C152.561 47.2188 152.164 48.5404 151.383 49.6992C150.602 50.8451 149.553 51.75 148.238 52.4141C146.923 53.0651 145.452 53.3906 143.824 53.3906C142.184 53.3906 140.751 53.1172 139.527 52.5703C138.316 52.0234 137.307 51.2682 136.5 50.3047C135.693 49.3281 135.087 48.1953 134.684 46.9062C134.28 45.6042 134.078 44.2109 134.078 42.7266V42.1602C134.078 40.6628 134.28 39.2695 134.684 37.9805C135.087 36.6784 135.693 35.5456 136.5 34.582C137.307 33.6055 138.316 32.8438 139.527 32.2969C140.738 31.75 142.158 31.4766 143.785 31.4766C145.517 31.4766 147.034 31.8086 148.336 32.4727C149.651 33.1367 150.68 34.0872 151.422 35.3242C152.177 36.5482 152.561 38 152.574 39.6797H147.281C147.268 38.9766 147.118 38.3385 146.832 37.7656C146.559 37.1927 146.155 36.737 145.621 36.3984C145.1 36.0469 144.456 35.8711 143.688 35.8711C142.867 35.8711 142.197 36.0469 141.676 36.3984C141.155 36.737 140.751 37.2057 140.465 37.8047C140.178 38.3906 139.977 39.0612 139.859 39.8164C139.755 40.5586 139.703 41.3398 139.703 42.1602V42.7266C139.703 43.5469 139.755 44.3346 139.859 45.0898C139.964 45.8451 140.159 46.5156 140.445 47.1016C140.745 47.6875 141.155 48.1497 141.676 48.4883C142.197 48.8268 142.874 48.9961 143.707 48.9961ZM161.324 23V53H155.699V23H161.324ZM160.523 41.6914H158.98C158.993 40.2201 159.189 38.8659 159.566 37.6289C159.944 36.3789 160.484 35.2982 161.188 34.3867C161.891 33.4622 162.73 32.7461 163.707 32.2383C164.697 31.7305 165.79 31.4766 166.988 31.4766C168.03 31.4766 168.974 31.6263 169.82 31.9258C170.68 32.2122 171.415 32.681 172.027 33.332C172.652 33.9701 173.134 34.8099 173.473 35.8516C173.811 36.8932 173.98 38.1562 173.98 39.6406V53H168.316V39.6016C168.316 38.6641 168.18 37.9284 167.906 37.3945C167.646 36.8477 167.262 36.4635 166.754 36.2422C166.259 36.0078 165.647 35.8906 164.918 35.8906C164.111 35.8906 163.421 36.0404 162.848 36.3398C162.288 36.6393 161.839 37.056 161.5 37.5898C161.161 38.1107 160.914 38.7227 160.758 39.4258C160.602 40.1289 160.523 40.8841 160.523 41.6914Z" fill="#FF67B9"/>
</svg>
